<svg xmlns="http://www.w3.org/2000/svg" width="225.5" height="44" viewBox="1 -13.39 282.24 55.08" role="img" aria-label="Benchmarked by HttpArena">
  <style>
    .f{fill:#111} .s{stroke:#111;fill:none}
    @media (prefers-color-scheme:dark){.f{fill:#fff} .s{stroke:#fff}}
  </style>
  <!-- speedometer emblem, scaled to span both text lines -->
  <g transform="translate(0.05 -20.33) scale(1.587)">
    <path class="s" d="M9.39 31.61 A15.0 15.0 0 1 1 30.61 31.61" stroke-width="2.3" stroke-linecap="round"/>
    <line class="s" x1="9.40" y1="21.00" x2="6.10" y2="21.00" stroke-width="1.4" stroke-linecap="round"/>
    <line class="s" x1="12.50" y1="13.50" x2="10.17" y2="11.17" stroke-width="1.4" stroke-linecap="round"/>
    <line class="s" x1="20.00" y1="10.40" x2="20.00" y2="7.10" stroke-width="1.4" stroke-linecap="round"/>
    <line class="s" x1="27.50" y1="13.50" x2="29.83" y2="11.17" stroke-width="1.4" stroke-linecap="round"/>
    <line class="s" x1="30.60" y1="21.00" x2="33.90" y2="21.00" stroke-width="1.4" stroke-linecap="round"/>
    <path class="f" d="M25.63 10.40 L18.32 20.11 L21.68 21.89 Z"/>
    <circle class="f" cx="20.0" cy="21.0" r="2.4"/>
  </g>
  <path class="f" d="M74.53 -5.85Q74.53 -4.65 73.65 -3.98Q72.78 -3.31 71.22 -3.31H67.56V-12.31H70.83Q74 -12.31 74 -10.13Q74 -9.33 73.56 -8.79Q73.11 -8.25 72.29 -8.06Q73.36 -7.93 73.95 -7.34Q74.53 -6.75 74.53 -5.85ZM72.78 -9.98Q72.78 -10.71 72.28 -11.02Q71.78 -11.34 70.83 -11.34H68.78V-8.49H70.83Q71.81 -8.49 72.29 -8.86Q72.78 -9.22 72.78 -9.98ZM73.29 -5.95Q73.29 -7.54 71.06 -7.54H68.78V-4.29H71.15Q72.27 -4.29 72.78 -4.71Q73.29 -5.12 73.29 -5.95ZM77.27 -6.53Q77.27 -5.34 77.76 -4.69Q78.25 -4.05 79.2 -4.05Q79.94 -4.05 80.39 -4.35Q80.84 -4.65 81 -5.11L82.01 -4.82Q81.39 -3.19 79.2 -3.19Q77.66 -3.19 76.86 -4.1Q76.06 -5.01 76.06 -6.82Q76.06 -8.53 76.86 -9.44Q77.66 -10.35 79.15 -10.35Q82.2 -10.35 82.2 -6.68V-6.53ZM81.01 -7.41Q80.91 -8.5 80.45 -9Q79.99 -9.5 79.13 -9.5Q78.3 -9.5 77.81 -8.95Q77.32 -8.39 77.28 -7.41ZM88.34 -3.31V-7.7Q88.34 -8.38 88.2 -8.76Q88.07 -9.13 87.77 -9.3Q87.48 -9.47 86.91 -9.47Q86.08 -9.47 85.6 -8.9Q85.12 -8.33 85.12 -7.32V-3.31H83.97V-8.75Q83.97 -9.96 83.94 -10.23H85.02Q85.03 -10.19 85.03 -10.05Q85.04 -9.91 85.05 -9.73Q85.06 -9.55 85.07 -9.04H85.09Q85.49 -9.76 86.01 -10.06Q86.53 -10.35 87.3 -10.35Q88.44 -10.35 88.97 -9.79Q89.49 -9.22 89.49 -7.92V-3.31ZM92.39 -6.8Q92.39 -5.42 92.82 -4.76Q93.25 -4.09 94.13 -4.09Q94.74 -4.09 95.16 -4.43Q95.57 -4.76 95.66 -5.45L96.83 -5.37Q96.69 -4.38 95.98 -3.78Q95.26 -3.19 94.16 -3.19Q92.71 -3.19 91.95 -4.1Q91.19 -5.02 91.19 -6.78Q91.19 -8.52 91.95 -9.44Q92.72 -10.35 94.15 -10.35Q95.21 -10.35 95.91 -9.8Q96.61 -9.26 96.79 -8.29L95.61 -8.2Q95.52 -8.78 95.15 -9.11Q94.79 -9.45 94.12 -9.45Q93.2 -9.45 92.79 -8.85Q92.39 -8.24 92.39 -6.8ZM99.48 -9.04Q99.85 -9.72 100.37 -10.04Q100.89 -10.35 101.69 -10.35Q102.82 -10.35 103.35 -9.79Q103.88 -9.24 103.88 -7.92V-3.31H102.73V-7.7Q102.73 -8.42 102.59 -8.78Q102.46 -9.13 102.15 -9.3Q101.85 -9.47 101.3 -9.47Q100.49 -9.47 100 -8.9Q99.51 -8.34 99.51 -7.39V-3.31H98.36V-12.79H99.51V-10.33Q99.51 -9.94 99.49 -9.52Q99.47 -9.11 99.46 -9.04ZM109.93 -3.31V-7.7Q109.93 -8.7 109.65 -9.08Q109.38 -9.47 108.66 -9.47Q107.93 -9.47 107.5 -8.9Q107.07 -8.34 107.07 -7.32V-3.31H105.93V-8.75Q105.93 -9.96 105.89 -10.23H106.98Q106.98 -10.19 106.99 -10.05Q106.99 -9.91 107 -9.73Q107.01 -9.55 107.03 -9.04H107.05Q107.42 -9.78 107.9 -10.07Q108.37 -10.35 109.06 -10.35Q109.85 -10.35 110.31 -10.04Q110.76 -9.73 110.94 -9.04H110.96Q111.32 -9.74 111.83 -10.05Q112.33 -10.35 113.06 -10.35Q114.1 -10.35 114.58 -9.79Q115.06 -9.22 115.06 -7.92V-3.31H113.92V-7.7Q113.92 -8.7 113.64 -9.08Q113.37 -9.47 112.65 -9.47Q111.9 -9.47 111.48 -8.91Q111.06 -8.35 111.06 -7.32V-3.31ZM118.85 -3.19Q117.81 -3.19 117.28 -3.74Q116.76 -4.29 116.76 -5.24Q116.76 -6.32 117.47 -6.89Q118.17 -7.47 119.74 -7.5L121.3 -7.53V-7.91Q121.3 -8.75 120.94 -9.11Q120.58 -9.48 119.81 -9.48Q119.04 -9.48 118.69 -9.22Q118.34 -8.95 118.27 -8.38L117.07 -8.49Q117.36 -10.35 119.84 -10.35Q121.14 -10.35 121.8 -9.76Q122.46 -9.16 122.46 -8.03V-5.05Q122.46 -4.54 122.59 -4.28Q122.73 -4.02 123.1 -4.02Q123.27 -4.02 123.48 -4.07V-3.35Q123.05 -3.25 122.59 -3.25Q121.95 -3.25 121.66 -3.59Q121.37 -3.92 121.33 -4.64H121.3Q120.86 -3.84 120.27 -3.52Q119.69 -3.19 118.85 -3.19ZM119.11 -4.05Q119.74 -4.05 120.24 -4.34Q120.73 -4.62 121.01 -5.13Q121.3 -5.63 121.3 -6.16V-6.73L120.04 -6.7Q119.23 -6.69 118.81 -6.53Q118.39 -6.38 118.17 -6.06Q117.94 -5.74 117.94 -5.22Q117.94 -4.66 118.25 -4.36Q118.55 -4.05 119.11 -4.05ZM124.68 -3.31V-8.62Q124.68 -9.34 124.64 -10.23H125.72Q125.77 -9.05 125.77 -8.81H125.8Q126.07 -9.7 126.43 -10.03Q126.79 -10.35 127.44 -10.35Q127.67 -10.35 127.91 -10.29V-9.24Q127.68 -9.3 127.29 -9.3Q126.58 -9.3 126.2 -8.68Q125.82 -8.07 125.82 -6.92V-3.31ZM133.62 -3.31 131.29 -6.47 130.44 -5.77V-3.31H129.29V-12.79H130.44V-6.87L133.48 -10.23H134.82L132.02 -7.26L134.97 -3.31ZM137 -6.53Q137 -5.34 137.49 -4.69Q137.99 -4.05 138.93 -4.05Q139.68 -4.05 140.13 -4.35Q140.58 -4.65 140.74 -5.11L141.75 -4.82Q141.13 -3.19 138.93 -3.19Q137.4 -3.19 136.6 -4.1Q135.8 -5.01 135.8 -6.82Q135.8 -8.53 136.6 -9.44Q137.4 -10.35 138.89 -10.35Q141.93 -10.35 141.93 -6.68V-6.53ZM140.75 -7.41Q140.65 -8.5 140.19 -9Q139.73 -9.5 138.87 -9.5Q138.03 -9.5 137.54 -8.95Q137.05 -8.39 137.02 -7.41ZM148.05 -4.43Q147.73 -3.76 147.2 -3.47Q146.67 -3.19 145.89 -3.19Q144.58 -3.19 143.97 -4.07Q143.35 -4.95 143.35 -6.74Q143.35 -10.35 145.89 -10.35Q146.68 -10.35 147.2 -10.07Q147.73 -9.78 148.05 -9.15H148.06L148.05 -9.93V-12.79H149.2V-4.74Q149.2 -3.66 149.23 -3.31H148.14Q148.12 -3.42 148.09 -3.79Q148.07 -4.16 148.07 -4.43ZM144.56 -6.78Q144.56 -5.33 144.94 -4.7Q145.33 -4.07 146.19 -4.07Q147.17 -4.07 147.61 -4.75Q148.05 -5.43 148.05 -6.85Q148.05 -8.23 147.61 -8.87Q147.17 -9.5 146.2 -9.5Q145.33 -9.5 144.95 -8.86Q144.56 -8.22 144.56 -6.78ZM161.01 -6.8Q161.01 -3.19 158.47 -3.19Q157.69 -3.19 157.17 -3.47Q156.64 -3.76 156.32 -4.39H156.31Q156.31 -4.19 156.28 -3.78Q156.25 -3.38 156.24 -3.31H155.13Q155.17 -3.66 155.17 -4.74V-12.79H156.32V-10.09Q156.32 -9.68 156.29 -9.11H156.32Q156.64 -9.78 157.17 -10.07Q157.69 -10.35 158.47 -10.35Q159.78 -10.35 160.4 -9.47Q161.01 -8.59 161.01 -6.8ZM159.81 -6.76Q159.81 -8.21 159.42 -8.84Q159.04 -9.47 158.18 -9.47Q157.21 -9.47 156.76 -8.8Q156.32 -8.14 156.32 -6.69Q156.32 -5.33 156.75 -4.68Q157.19 -4.04 158.16 -4.04Q159.03 -4.04 159.42 -4.68Q159.81 -5.32 159.81 -6.76ZM163.07 -0.6Q162.6 -0.6 162.28 -0.67V-1.53Q162.52 -1.49 162.81 -1.49Q163.89 -1.49 164.51 -3.07L164.62 -3.35L161.88 -10.23H163.11L164.57 -6.41Q164.6 -6.32 164.64 -6.19Q164.69 -6.07 164.93 -5.36Q165.17 -4.65 165.19 -4.57L165.64 -5.82L167.15 -10.23H168.37L165.71 -3.31Q165.28 -2.21 164.91 -1.67Q164.54 -1.13 164.09 -0.87Q163.64 -0.6 163.07 -0.6Z" opacity="0.72"/>
  <path class="f" d="M87.43 31.8V18.6H74.01V31.8H67.56V1H74.01V13.26H87.43V1H93.88V31.8ZM106.08 32.19Q103.37 32.19 101.91 30.72Q100.44 29.24 100.44 26.25V12.3H97.45V8.15H100.75L102.67 2.6H106.52V8.15H111V12.3H106.52V24.59Q106.52 26.31 107.17 27.13Q107.83 27.95 109.21 27.95Q109.93 27.95 111.26 27.65V31.45Q108.99 32.19 106.08 32.19ZM120.99 32.19Q118.28 32.19 116.81 30.72Q115.35 29.24 115.35 26.25V12.3H112.35V8.15H115.66L117.58 2.6H121.43V8.15H125.91V12.3H121.43V24.59Q121.43 26.31 122.08 27.13Q122.74 27.95 124.11 27.95Q124.84 27.95 126.17 27.65V31.45Q123.9 32.19 120.99 32.19ZM152.23 19.86Q152.23 25.79 149.85 29.01Q147.48 32.24 143.15 32.24Q140.66 32.24 138.82 31.16Q136.97 30.07 135.98 28.04H135.85Q135.98 28.7 135.98 32.02V41.09H129.84V13.59Q129.84 10.25 129.67 8.15H135.63Q135.74 8.54 135.82 9.7Q135.9 10.86 135.9 12H135.98Q138.06 7.65 143.55 7.65Q147.68 7.65 149.95 10.83Q152.23 14.01 152.23 19.86ZM145.82 19.86Q145.82 11.91 140.95 11.91Q138.5 11.91 137.2 14.05Q135.9 16.19 135.9 20.04Q135.9 23.87 137.2 25.95Q138.5 28.04 140.9 28.04Q145.82 28.04 145.82 19.86ZM178.83 31.8 176.1 23.93H164.36L161.63 31.8H155.18L166.41 1H174.02L185.21 31.8ZM170.22 5.74 170.09 6.22Q169.87 7.01 169.56 8.02Q169.25 9.02 165.8 19.08H174.65L171.62 10.22L170.68 7.25ZM189.52 31.8V13.7Q189.52 11.75 189.46 10.45Q189.41 9.15 189.34 8.15H195.2Q195.27 8.54 195.38 10.54Q195.49 12.54 195.49 13.2H195.57Q196.47 10.71 197.17 9.69Q197.87 8.67 198.83 8.18Q199.79 7.69 201.23 7.69Q202.42 7.69 203.14 8.02V13.15Q201.65 12.83 200.51 12.83Q198.22 12.83 196.94 14.68Q195.66 16.54 195.66 20.19V31.8ZM216.62 32.24Q211.29 32.24 208.43 29.08Q205.56 25.92 205.56 19.86Q205.56 14.01 208.47 10.86Q211.38 7.71 216.71 7.71Q221.8 7.71 224.49 11.09Q227.18 14.47 227.18 20.98V21.15H212.01Q212.01 24.61 213.29 26.37Q214.57 28.13 216.93 28.13Q220.19 28.13 221.04 25.31L226.83 25.81Q224.32 32.24 216.62 32.24ZM216.62 11.58Q214.46 11.58 213.29 13.09Q212.12 14.6 212.06 17.31H221.24Q221.06 14.44 219.86 13.01Q218.66 11.58 216.62 11.58ZM247.16 31.8V18.53Q247.16 12.3 242.94 12.3Q240.71 12.3 239.35 14.21Q237.98 16.13 237.98 19.12V31.8H231.84V13.44Q231.84 11.54 231.78 10.32Q231.73 9.11 231.66 8.15H237.52Q237.59 8.56 237.7 10.37Q237.81 12.17 237.81 12.85H237.89Q239.14 10.14 241.02 8.91Q242.9 7.69 245.5 7.69Q249.26 7.69 251.27 10.01Q253.28 12.32 253.28 16.78V31.8ZM264.65 32.24Q261.22 32.24 259.29 30.37Q257.37 28.5 257.37 25.11Q257.37 21.44 259.76 19.51Q262.16 17.59 266.7 17.55L271.8 17.46V16.26Q271.8 13.94 270.99 12.82Q270.18 11.69 268.34 11.69Q266.64 11.69 265.84 12.47Q265.04 13.24 264.85 15.03L258.44 14.73Q259.03 11.27 261.6 9.49Q264.17 7.71 268.61 7.71Q273.09 7.71 275.51 9.92Q277.94 12.13 277.94 16.19V24.8Q277.94 26.79 278.39 27.55Q278.84 28.3 279.89 28.3Q280.58 28.3 281.24 28.17V31.49Q280.69 31.63 280.26 31.73Q279.82 31.84 279.38 31.91Q278.95 31.97 278.45 32.02Q277.96 32.06 277.31 32.06Q274.99 32.06 273.88 30.93Q272.78 29.79 272.56 27.58H272.43Q269.85 32.24 264.65 32.24ZM271.8 20.85 268.65 20.89Q266.51 20.98 265.61 21.36Q264.71 21.74 264.24 22.53Q263.77 23.32 263.77 24.63Q263.77 26.31 264.55 27.13Q265.33 27.95 266.62 27.95Q268.06 27.95 269.25 27.17Q270.44 26.38 271.12 24.99Q271.8 23.6 271.8 22.05Z"/>
</svg>
